<svg xmlns="http://www.w3.org/2000/svg" xmlns:xlink="http://www.w3.org/1999/xlink" width="320" zoomAndPan="magnify" viewBox="0 0 240 239.999995" height="320" preserveAspectRatio="xMidYMid meet" version="1.0">
<defs>
<clipPath id="3fa2c7d6b4">
<path d="M 0.878906 1.039062 L 205 1.039062 L 205 204.808594 L 0.878906 204.808594 Z M 0.878906 1.039062 " clip-rule="nonzero"/>
</clipPath>
<clipPath id="01deaf1a93">
<path d="M 179 81 L 223.144531 81 L 223.144531 125 L 179 125 Z M 179 81 " clip-rule="nonzero"/>
</clipPath>
<clipPath id="0ddeaea0bd">
<rect x="0" width="224" y="0" height="205"/>
</clipPath>
</defs>
<g transform="matrix(1, 0, 0, 1, 8, 20)">
<g clip-path="url(#0ddeaea0bd)">
<g clip-path="url(#3fa2c7d6b4)">
<path fill="#002e6b" d="M 204.828125 102.867188 C 204.828125 159.0625 159.082031 204.808594 102.886719 204.808594 C 46.628906 204.808594 0.878906 159.0625 0.878906 102.867188 C 0.878906 46.671875 46.628906 0.921875 102.824219 0.921875 C 159.082031 0.859375 204.828125 46.605469 204.828125 102.867188 Z M 7.890625 102.867188 C 7.890625 155.175781 50.515625 197.800781 102.824219 197.800781 C 155.195312 197.800781 197.757812 155.175781 197.757812 102.867188 C 197.757812 50.492188 155.132812 7.933594 102.824219 7.933594 C 50.515625 7.867188 7.890625 50.492188 7.890625 102.867188 Z M 7.890625 102.867188 " fill-opacity="1" fill-rule="nonzero"/>
</g>
<g clip-path="url(#01deaf1a93)">
<path fill="#002e6b" d="M 223.113281 102.867188 C 223.113281 114.90625 213.367188 124.65625 201.324219 124.65625 C 189.28125 124.65625 179.535156 114.90625 179.535156 102.867188 C 179.535156 90.824219 189.28125 81.074219 201.324219 81.074219 C 213.367188 81.074219 223.113281 90.824219 223.113281 102.867188 Z M 185.269531 102.867188 C 185.269531 111.722656 192.46875 118.921875 201.324219 118.921875 C 210.179688 118.921875 217.378906 111.722656 217.378906 102.867188 C 217.378906 94.007812 210.179688 86.808594 201.324219 86.808594 C 192.46875 86.808594 185.269531 94.007812 185.269531 102.867188 Z M 185.269531 102.867188 " fill-opacity="1" fill-rule="nonzero"/>
</g>
</g>
</g>
</svg>
