<?xml version="1.0" encoding="UTF-8"?>
<svg viewBox="0 0 360 360" xmlns="http://www.w3.org/2000/svg">
  <!-- Background -->
  <rect x="0" y="0" width="360" height="360" fill="white" />
  
  <!-- Ring segments -->
  <circle cx="180" cy="180" r="170" fill="none" stroke="#f1f5f9" stroke-width="28" />
  <circle cx="180" cy="180" r="142" fill="none" stroke="#f8fafc" stroke-width="26" />
  <circle cx="180" cy="180" r="114" fill="none" stroke="#f1f5f9" stroke-width="24" />
  <circle cx="180" cy="180" r="90" fill="none" stroke="#e2e8f0" stroke-width="12" />
  <circle cx="180" cy="180" r="78" fill="none" stroke="#f3f4f6" stroke-width="10" />
  
  <!-- Activity segments -->
  <path d="M 355.7985003846104 227.10506620865877 A 182 182 0 0 1 315.25235823688575 301.7817703573122 L 298.16002725090567 286.3917664110585 A 159 159 0 0 0 333.58220637996186 221.1522281713008 Z" fill="#ec4899" opacity="0.9" />
  <path d="M 217.8399277288322 358.0228633335526 A 182 182 0 0 1 164.1376548199262 361.30743505269766 L 166.14223690312235 338.39495699658755 A 159 159 0 0 0 213.05795884002376 335.5254685166751 Z" fill="#06b6d4" opacity="0.88" />
  <path d="M 51.30656582404836 308.69343417595167 A 182 182 0 0 1 4.201499615389594 227.10506620865883 L 26.417793620038168 221.15222817130083 A 159 159 0 0 0 67.57002179133896 292.42997820866105 Z" fill="#8b5cf6" opacity="0.85" />
  <path d="M 4.201499615389537 132.8949337913413 A 182 182 0 0 1 36.582042843576545 67.94961149073028 L 54.70629017653117 82.1098254232204 A 159 159 0 0 0 26.41779362003811 138.84777182869925 Z" fill="#3b82f6" opacity="0.9" />
  <path d="M 132.89493379134126 4.201499615389565 A 182 182 0 0 1 195.86234518007373 -1.3074350526976843 L 193.8577630968776 21.605043003412447 A 159 159 0 0 0 138.84777182869922 26.41779362003814 Z" fill="#f97316" opacity="0.88" />
  <path d="M 296.98734496295015 40.57991135234599 A 182 182 0 0 1 351.02405698303534 117.75233391472831 L 329.41112670495943 125.61879721121869 A 159 159 0 0 0 282.20322994015976 58.19893354408248 Z" fill="#10b981" opacity="0.85" />
  <path d="M 333.41398350612883 193.42198438313935 A 154 154 0 0 1 306.1494148205047 268.3307711980611 L 288.1280698461469 255.71208959833808 A 132 132 0 0 0 311.4977001481104 191.5045580426909 Z" fill="#3b82f6" opacity="0.9" />
  <path d="M 185.37452249218518 333.90618736094075 A 154 154 0 0 1 122.31058461394954 322.7863136032853 L 130.5519296690996 302.38826880281596 A 132 132 0 0 0 184.60673356473015 311.9195891665206 Z" fill="#f97316" opacity="0.88" />
  <path d="M 49.40059319191039 261.6075666919136 A 154 154 0 0 1 27.498717413798175 201.4326575478501 L 49.28461492611274 198.3708493267287 A 132 132 0 0 0 68.05765130735178 249.94934287878306 Z" fill="#10b981" opacity="0.85" />
  <path d="M 44.02607069972527 107.70137933097281 A 154 154 0 0 1 91.66922880193886 53.8505851794953 L 104.28791040166188 71.87193015385311 A 132 132 0 0 0 63.450917742621655 118.0297537122624 Z" fill="#8b5cf6" opacity="0.9" />
  <path d="M 174.62547750781474 26.09381263905928 A 154 154 0 0 1 219.85813294578827 31.247422751483498 L 214.1641139535328 52.49779092984299 A 132 132 0 0 0 175.3932664352698 48.08041083347936 Z" fill="#ec4899" opacity="0.88" />
  <path d="M 294.4443031235187 76.95388662073584 A 154 154 0 0 1 315.9739293002748 107.70137933097281 L 296.54908225737836 118.02975371226242 A 132 132 0 0 0 278.09511696301604 91.67475996063072 Z" fill="#06b6d4" opacity="0.85" />
  <path d="M 297.752349529982 227.57503736382083 A 127 127 0 0 1 264.979587007575 274.37939283562906 L 249.58958306132126 257.28706184964904 A 104 104 0 0 0 276.4271208749459 218.95908571525484 Z" fill="#8b5cf6" opacity="0.9" />
  <path d="M 212.87001872802014 302.6725799387117 A 127 127 0 0 1 175.56776391878242 306.92263503142516 L 176.37045234293993 283.93664600998596 A 104 104 0 0 0 206.91718069066215 280.4562859340631 Z" fill="#ec4899" opacity="0.88" />
  <path d="M 107.15579258341718 284.03230962470195 A 127 127 0 0 1 75.96769037529808 252.8442074165829 L 94.80818739394488 239.65194938050882 A 104 104 0 0 0 120.34805061949123 265.1918126060552 Z" fill="#06b6d4" opacity="0.85" />
  <path d="M 53.48327334234831 168.93122067104744 A 127 127 0 0 1 64.89891104634545 126.32748075893119 L 85.7439901481884 136.04770077896728 A 104 104 0 0 0 76.39575139845846 170.93580275424358 Z" fill="#3b82f6" opacity="0.9" />
  <path d="M 107.15579258341711 75.96769037529808 A 127 127 0 0 1 153.59521526614452 55.77525470680669 L 158.37718415495297 78.27264952368422 A 104 104 0 0 0 120.34805061949118 94.80818739394488 Z" fill="#f97316" opacity="0.88" />
  <path d="M 233.67251924106884 64.89891104634548 A 127 127 0 0 1 264.97958700757493 85.6206071643709 L 249.5895830613212 102.71293815035096 A 104 104 0 0 0 223.95229922103277 85.74399014818842 Z" fill="#10b981" opacity="0.85" />
</svg>