<svg xmlns="http://www.w3.org/2000/svg" xmlns:xlink="http://www.w3.org/1999/xlink" width="770" zoomAndPan="magnify" viewBox="0 0 577.5 129.000003" height="172" preserveAspectRatio="xMidYMid meet" version="1.0"><defs><g/><clipPath id="3c5473df42"><path d="M 1.972656 26.363281 L 77.140625 26.363281 L 77.140625 101.53125 L 1.972656 101.53125 Z M 1.972656 26.363281 " clip-rule="nonzero"/></clipPath></defs><g clip-path="url(#3c5473df42)"><path stroke-linecap="butt" transform="matrix(0.197809, 0, 0, 0.197809, 3.951157, 28.342262)" fill="none" stroke-linejoin="miter" d="M 349.996924 180.007031 C 349.996924 185.575859 349.720457 191.124938 349.187272 196.654271 C 348.634338 202.20335 347.824686 207.712935 346.738567 213.163277 C 345.652449 218.633366 344.289863 224.024465 342.670559 229.356321 C 341.071002 234.668429 339.194979 239.921295 337.062236 245.055674 C 334.929494 250.209802 332.55978 255.225696 329.933347 260.142852 C 327.306914 265.040261 324.44351 269.819183 321.343135 274.440125 C 318.262507 279.080815 314.944908 283.543776 311.410085 287.848756 C 307.875262 292.153736 304.142962 296.280987 300.213187 300.210762 C 296.263664 304.140538 292.15616 307.872837 287.85118 311.40766 C 283.5462 314.942483 279.083239 318.260082 274.44255 321.34071 C 269.821608 324.441086 265.042685 327.30449 260.145277 329.930923 C 255.228121 332.557356 250.192479 334.927069 245.058099 337.059812 C 239.903971 339.192554 234.670854 341.068577 229.338998 342.687882 C 224.026889 344.287439 218.63579 345.650024 213.165701 346.736143 C 207.695612 347.822262 202.205775 348.631914 196.656695 349.184847 C 191.127363 349.718033 185.558536 349.994499 180.009456 349.994499 C 174.440628 349.994499 168.871801 349.718033 163.342469 349.184847 C 157.793389 348.631914 152.303552 347.822262 146.833463 346.736143 C 141.383121 345.650024 135.972275 344.287439 130.660166 342.687882 C 125.32831 341.068577 120.095193 339.192554 114.941065 337.059812 C 109.806685 334.927069 104.771043 332.557356 99.853887 329.930923 C 94.956479 327.30449 90.177556 324.441086 85.556614 321.34071 C 80.915925 318.260082 76.452964 314.942483 72.147984 311.40766 C 67.843004 307.872837 63.7355 304.140538 59.785977 300.210762 C 55.856202 296.280987 52.123902 292.153736 48.589079 287.848756 C 45.054256 283.543776 41.736657 279.080815 38.656029 274.440125 C 35.555654 269.819183 32.692249 265.040261 30.065817 260.142852 C 27.439384 255.225696 25.06967 250.209802 22.936928 245.055674 C 20.804185 239.921295 18.928162 234.668429 17.328605 229.356321 C 15.709301 224.024465 14.346715 218.633366 13.260597 213.163277 C 12.174478 207.712935 11.364826 202.20335 10.811892 196.654271 C 10.278707 191.124938 10.00224 185.575859 10.00224 180.007031 C 10.00224 174.438204 10.278707 168.869377 10.811892 163.340044 C 11.364826 157.790965 12.174478 152.301128 13.260597 146.831038 C 14.346715 141.380697 15.709301 135.96985 17.328605 130.657742 C 18.928162 125.325886 20.804185 120.092768 22.936928 114.938641 C 25.06967 109.804261 27.439384 104.768619 30.065817 99.871211 C 32.692249 94.954054 35.555654 90.175132 38.656029 85.55419 C 41.736657 80.933248 45.054256 76.450539 48.589079 72.145559 C 52.123902 67.840579 55.856202 63.733075 59.785977 59.783552 C 63.7355 55.853777 67.843004 52.121478 72.147984 48.586655 C 76.452964 45.051832 80.915925 41.734233 85.556614 38.653605 C 90.177556 35.553229 94.956479 32.689825 99.853887 30.08314 C 104.771043 27.456707 109.806685 25.067246 114.941065 22.934503 C 120.095193 20.801761 125.32831 18.945485 130.660166 17.326181 C 135.972275 15.706876 141.383121 14.344291 146.833463 13.258172 C 152.303552 12.172053 157.793389 11.362401 163.342469 10.809468 C 168.871801 10.276282 174.440628 9.999816 180.009456 9.999816 C 185.558536 9.999816 191.127363 10.276282 196.656695 10.809468 C 202.205775 11.362401 207.695612 12.172053 213.165701 13.258172 C 218.63579 14.344291 224.026889 15.706876 229.338998 17.326181 C 234.670854 18.945485 239.903971 20.801761 245.058099 22.934503 C 250.192479 25.067246 255.228121 27.456707 260.145277 30.08314 C 265.042685 32.689825 269.821608 35.553229 274.44255 38.653605 C 279.083239 41.734233 283.5462 45.051832 287.85118 48.586655 C 292.15616 52.121478 296.263664 55.853777 300.213187 59.783552 C 304.142962 63.733075 307.875262 67.840579 311.410085 72.145559 C 314.944908 76.450539 318.262507 80.933248 321.343135 85.55419 C 324.44351 90.175132 327.306914 94.954054 329.933347 99.871211 C 332.55978 104.768619 334.929494 109.804261 337.062236 114.938641 C 339.194979 120.092768 341.071002 125.325886 342.670559 130.657742 C 344.289863 135.96985 345.652449 141.380697 346.738567 146.831038 C 347.824686 152.301128 348.634338 157.790965 349.187272 163.340044 C 349.720457 168.869377 349.996924 174.438204 349.996924 180.007031 Z M 349.996924 180.007031 " stroke="#f1f5f9" stroke-width="28" stroke-opacity="1" stroke-miterlimit="4"/><path stroke-linecap="butt" transform="matrix(0.197809, 0, 0, 0.197809, 3.951157, 28.342262)" fill="none" stroke-linejoin="miter" d="M 321.994806 180.007031 C 321.994806 184.647721 321.777582 189.28841 321.323387 193.909352 C 320.869192 198.550042 320.178026 203.151236 319.269635 207.693187 C 318.361245 212.254886 317.235631 216.77709 315.892793 221.220303 C 314.530208 225.663517 312.970146 230.047487 311.192861 234.33272 C 309.415575 238.6377 307.421066 242.843942 305.229081 246.931698 C 303.037096 251.039202 300.647635 255.02822 298.060697 258.898752 C 295.493507 262.749537 292.709093 266.481836 289.766699 270.075902 C 286.824304 273.669968 283.704181 277.125801 280.406329 280.403905 C 277.128225 283.701757 273.672393 286.82188 270.078327 289.764274 C 266.484261 292.726416 262.751962 295.491083 258.881429 298.07802 C 255.030644 300.64521 251.041626 303.034671 246.934122 305.226657 C 242.846366 307.418642 238.640124 309.413151 234.335144 311.190436 C 230.049912 312.967722 225.665941 314.527783 221.222728 315.890369 C 216.779515 317.233206 212.257311 318.35882 207.695612 319.267211 C 203.133913 320.175601 198.552466 320.866768 193.911777 321.320963 C 189.290835 321.775158 184.650145 321.992382 180.009456 321.992382 C 175.349019 321.992382 170.708329 321.775158 166.087387 321.320963 C 161.446698 320.866768 156.865251 320.175601 152.303552 319.267211 C 147.741853 318.35882 143.239397 317.233206 138.776436 315.890369 C 134.333223 314.527783 129.949252 312.967722 125.66402 311.190436 C 121.35904 309.413151 117.172546 307.418642 113.065042 305.226657 C 108.957538 303.034671 104.96852 300.64521 101.117735 298.07802 C 97.247202 295.491083 93.514903 292.726416 89.920837 289.764274 C 86.326771 286.82188 82.870939 283.701757 79.592835 280.403905 C 76.294983 277.125801 73.17486 273.669968 70.232465 270.075902 C 67.290071 266.481836 64.505657 262.749537 61.938467 258.898752 C 59.351529 255.02822 56.962068 251.039202 54.770083 246.931698 C 52.578098 242.843942 50.583588 238.6377 48.806303 234.33272 C 47.029018 230.047487 45.468956 225.663517 44.106371 221.220303 C 42.763533 216.77709 41.637919 212.254886 40.729529 207.693187 C 39.821138 203.151236 39.129972 198.550042 38.675777 193.909352 C 38.221582 189.28841 38.004358 184.647721 38.004358 180.007031 C 38.004358 175.346594 38.221582 170.705905 38.675777 166.084963 C 39.129972 161.444273 39.821138 156.862827 40.729529 152.301128 C 41.637919 147.739429 42.763533 143.236973 44.106371 138.774012 C 45.468956 134.330798 47.029018 129.946828 48.806303 125.661595 C 50.583588 121.356615 52.578098 117.170121 54.770083 113.062617 C 56.962068 108.955113 59.351529 104.966095 61.938467 101.11531 C 64.505657 97.244778 67.290071 93.512479 70.232465 89.918413 C 73.17486 86.324347 76.294983 82.888262 79.592835 79.59041 C 82.870939 76.292558 86.326771 73.192183 89.920837 70.230041 C 93.514903 67.287646 97.247202 64.52298 101.117735 61.936043 C 104.96852 59.349105 108.957538 56.959644 113.065042 54.767658 C 117.172546 52.575673 121.35904 50.581164 125.66402 48.803879 C 129.949252 47.026593 134.333223 45.466532 138.776436 44.123694 C 143.239397 42.761109 147.741853 41.635495 152.303552 40.727104 C 156.865251 39.818714 161.446698 39.147295 166.087387 38.6931 C 170.708329 38.219157 175.349019 38.001933 180.009456 38.001933 C 184.650145 38.001933 189.290835 38.219157 193.911777 38.6931 C 198.552466 39.147295 203.133913 39.818714 207.695612 40.727104 C 212.257311 41.635495 216.779515 42.761109 221.222728 44.123694 C 225.665941 45.466532 230.049912 47.026593 234.335144 48.803879 C 238.640124 50.581164 242.846366 52.575673 246.934122 54.767658 C 251.041626 56.959644 255.030644 59.349105 258.881429 61.936043 C 262.751962 64.52298 266.484261 67.287646 270.078327 70.230041 C 273.672393 73.192183 277.128225 76.292558 280.406329 79.59041 C 283.704181 82.888262 286.824304 86.324347 289.766699 89.918413 C 292.709093 93.512479 295.493507 97.244778 298.060697 101.11531 C 300.647635 104.966095 303.037096 108.955113 305.229081 113.062617 C 307.421066 117.170121 309.415575 121.356615 311.192861 125.661595 C 312.970146 129.946828 314.530208 134.330798 315.892793 138.774012 C 317.235631 143.236973 318.361245 147.739429 319.269635 152.301128 C 320.178026 156.862827 320.869192 161.444273 321.323387 166.084963 C 321.777582 170.705905 321.994806 175.346594 321.994806 180.007031 Z M 321.994806 180.007031 " stroke="#f8fafc" stroke-width="26" stroke-opacity="1" stroke-miterlimit="4"/><path stroke-linecap="butt" transform="matrix(0.197809, 0, 0, 0.197809, 3.951157, 28.342262)" fill="none" stroke-linejoin="miter" d="M 293.992688 180.007031 C 293.992688 183.73933 293.81496 187.451882 293.459503 191.164434 C 293.084298 194.896733 292.531365 198.569789 291.800703 202.242846 C 291.089789 205.896154 290.181399 209.509968 289.09528 213.084286 C 288.009161 216.658604 286.745314 220.17368 285.323485 223.629512 C 283.901657 227.065597 282.3021 230.442439 280.544563 233.740291 C 278.787025 237.038143 276.871506 240.237256 274.778259 243.337632 C 272.70476 246.438007 270.493027 249.439645 268.123313 252.322797 C 265.753599 255.205948 263.245652 257.970614 260.619219 260.616795 C 257.973039 263.243228 255.208373 265.751175 252.325221 268.120888 C 249.442069 270.490602 246.440432 272.722083 243.340056 274.795582 C 240.239681 276.869082 237.040567 278.7846 233.742716 280.542138 C 230.444864 282.299676 227.068022 283.899233 223.631937 285.321061 C 220.176104 286.742889 216.661029 288.006737 213.086711 289.092855 C 209.512392 290.178974 205.898579 291.087364 202.24527 291.818026 C 198.572214 292.52894 194.899157 293.081874 191.166858 293.457078 C 187.454307 293.812535 183.741755 293.990264 180.009456 293.990264 C 176.257409 293.990264 172.544857 293.812535 168.832306 293.457078 C 165.119754 293.081874 161.42695 292.52894 157.753894 291.818026 C 154.100585 291.087364 150.486772 290.178974 146.912453 289.092855 C 143.338135 288.006737 139.82306 286.742889 136.367227 285.321061 C 132.931142 283.899233 129.5543 282.299676 126.256448 280.542138 C 122.958597 278.7846 119.779231 276.869082 116.659108 274.795582 C 113.558732 272.722083 110.557095 270.490602 107.673943 268.120888 C 104.790791 265.751175 102.026125 263.243228 99.399692 260.616795 C 96.753512 257.970614 94.245565 255.205948 91.875851 252.322797 C 89.506137 249.439645 87.294404 246.438007 85.220905 243.337632 C 83.147405 240.237256 81.212139 237.038143 79.454601 233.740291 C 77.697064 230.442439 76.097507 227.065597 74.675679 223.629512 C 73.25385 220.17368 71.990003 216.658604 70.903884 213.084286 C 69.817765 209.509968 68.909375 205.896154 68.198461 202.242846 C 67.467799 198.569789 66.914866 194.896733 66.539661 191.164434 C 66.184204 187.451882 66.006476 183.73933 66.006476 180.007031 C 66.006476 176.274732 66.184204 172.542433 66.539661 168.829881 C 66.914866 165.11733 67.467799 161.424526 68.198461 157.751469 C 68.909375 154.098161 69.817765 150.484347 70.903884 146.910029 C 71.990003 143.335711 73.25385 139.820635 74.675679 136.364803 C 76.097507 132.928718 77.697064 129.551876 79.454601 126.254024 C 81.212139 122.97592 83.147405 119.776806 85.220905 116.656683 C 87.294404 113.556308 89.506137 110.574418 91.875851 107.671518 C 94.245565 104.788367 96.753512 102.023701 99.399692 99.397268 C 102.026125 96.751087 104.790791 94.24314 107.673943 91.873427 C 110.557095 89.503713 113.558732 87.29198 116.659108 85.21848 C 119.779231 83.144981 122.958597 81.229462 126.256448 79.452177 C 129.5543 77.694639 132.931142 76.11483 136.367227 74.673254 C 139.82306 73.251426 143.338135 71.987578 146.912453 70.90146 C 150.486772 69.815341 154.100585 68.926698 157.753894 68.196036 C 161.42695 67.465375 165.119754 66.912441 168.832306 66.556984 C 172.544857 66.18178 176.257409 66.004051 180.009456 66.004051 C 183.741755 66.004051 187.454307 66.18178 191.166858 66.556984 C 194.899157 66.912441 198.572214 67.465375 202.24527 68.196036 C 205.898579 68.926698 209.512392 69.815341 213.086711 70.90146 C 216.661029 71.987578 220.176104 73.251426 223.631937 74.673254 C 227.068022 76.11483 230.444864 77.694639 233.742716 79.452177 C 237.040567 81.229462 240.239681 83.144981 243.340056 85.21848 C 246.440432 87.29198 249.442069 89.503713 252.325221 91.873427 C 255.208373 94.24314 257.973039 96.751087 260.619219 99.397268 C 263.245652 102.023701 265.753599 104.788367 268.123313 107.671518 C 270.493027 110.574418 272.70476 113.556308 274.778259 116.656683 C 276.871506 119.776806 278.787025 122.97592 280.544563 126.254024 C 282.3021 129.551876 283.901657 132.928718 285.323485 136.364803 C 286.745314 139.820635 288.009161 143.335711 289.09528 146.910029 C 290.181399 150.484347 291.089789 154.098161 291.800703 157.751469 C 292.531365 161.424526 293.084298 165.11733 293.459503 168.829881 C 293.81496 172.542433 293.992688 176.274732 293.992688 180.007031 Z M 293.992688 180.007031 " stroke="#f1f5f9" stroke-width="24" stroke-opacity="1" stroke-miterlimit="4"/></g><path stroke-linecap="butt" transform="matrix(0.197809, 0, 0, 0.197809, 3.951157, 28.342262)" fill="none" stroke-linejoin="miter" d="M 269.999336 180.007031 C 269.999336 182.949426 269.861103 185.891821 269.564889 188.814467 C 269.268675 191.756862 268.853975 194.659761 268.261546 197.562661 C 267.688865 200.445813 266.977951 203.309217 266.128804 206.133126 C 265.259909 208.937287 264.272528 211.721701 263.146914 214.446871 C 262.0213 217.172042 260.757453 219.818223 259.37512 222.424908 C 257.992787 225.031593 256.47222 227.559288 254.833168 230.007992 C 253.194116 232.456696 251.436578 234.82641 249.580303 237.097386 C 247.704279 239.368361 245.729518 241.560347 243.636271 243.633846 C 241.562771 245.727093 239.370786 247.701855 237.09981 249.577878 C 234.809087 251.434154 232.459121 253.191692 230.010416 254.830744 C 227.541965 256.469796 225.034017 257.990362 222.427332 259.372695 C 219.820647 260.755028 217.174467 262.018876 214.449296 263.14449 C 211.724125 264.270104 208.939711 265.277232 206.115803 266.126379 C 203.311641 266.975527 200.448237 267.686441 197.565085 268.278869 C 194.662186 268.85155 191.759287 269.285998 188.816892 269.562464 C 185.894245 269.858679 182.95185 269.996912 180.009456 269.996912 C 177.047314 269.996912 174.104919 269.858679 171.182272 269.562464 C 168.239877 269.285998 165.336978 268.85155 162.434079 268.278869 C 159.550927 267.686441 156.687523 266.975527 153.883361 266.126379 C 151.059453 265.277232 148.275039 264.270104 145.549868 263.14449 C 142.844445 262.018876 140.178517 260.755028 137.571832 259.372695 C 134.965146 257.990362 132.457199 256.469796 130.008495 254.830744 C 127.540043 253.191692 125.190077 251.434154 122.899354 249.577878 C 120.628378 247.701855 118.436393 245.727093 116.362893 243.633846 C 114.269646 241.560347 112.294885 239.368361 110.438609 237.097386 C 108.562585 234.82641 106.805048 232.456696 105.165996 230.007992 C 103.526944 227.559288 102.026125 225.031593 100.624044 222.424908 C 99.241711 219.818223 97.977864 217.172042 96.85225 214.446871 C 95.726636 211.721701 94.739255 208.937287 93.87036 206.133126 C 93.021213 203.309217 92.310299 200.445813 91.737618 197.562661 C 91.145189 194.659761 90.730489 191.756862 90.434275 188.814467 C 90.138061 185.891821 89.999828 182.949426 89.999828 180.007031 C 89.999828 177.044889 90.138061 174.102494 90.434275 171.179847 C 90.730489 168.237453 91.145189 165.334554 91.737618 162.451402 C 92.310299 159.548502 93.021213 156.704846 93.87036 153.880937 C 94.739255 151.057028 95.726636 148.272614 96.85225 145.567191 C 97.977864 142.84202 99.241711 140.176092 100.624044 137.569407 C 102.026125 134.98247 103.526944 132.454775 105.165996 130.006071 C 106.805048 127.557366 108.562585 125.187653 110.438609 122.896929 C 112.294885 120.625954 114.269646 118.453716 116.362893 116.360469 C 118.436393 114.267222 120.628378 112.29246 122.899354 110.436184 C 125.190077 108.560161 127.540043 106.802623 130.008495 105.163571 C 132.457199 103.524519 134.965146 102.023701 137.571832 100.62162 C 140.178517 99.239287 142.844445 97.975439 145.549868 96.849825 C 148.275039 95.724211 151.059453 94.736831 153.883361 93.867936 C 156.687523 93.018788 159.550927 92.307874 162.434079 91.735193 C 165.336978 91.162512 168.239877 90.728065 171.182272 90.431851 C 174.104919 90.135636 177.047314 89.997403 180.009456 89.997403 C 182.95185 89.997403 185.894245 90.135636 188.816892 90.431851 C 191.759287 90.728065 194.662186 91.162512 197.565085 91.735193 C 200.448237 92.307874 203.311641 93.018788 206.115803 93.867936 C 208.939711 94.736831 211.724125 95.724211 214.449296 96.849825 C 217.174467 97.975439 219.820647 99.239287 222.427332 100.62162 C 225.034017 102.023701 227.541965 103.524519 230.010416 105.163571 C 232.459121 106.802623 234.809087 108.560161 237.09981 110.436184 C 239.370786 112.29246 241.562771 114.267222 243.636271 116.360469 C 245.729518 118.453716 247.704279 120.625954 249.580303 122.896929 C 251.436578 125.187653 253.194116 127.557366 254.833168 130.006071 C 256.47222 132.454775 257.992787 134.98247 259.37512 137.569407 C 260.757453 140.176092 262.0213 142.84202 263.146914 145.567191 C 264.272528 148.272614 265.259909 151.057028 266.128804 153.880937 C 266.977951 156.704846 267.688865 159.548502 268.261546 162.451402 C 268.853975 165.334554 269.268675 168.237453 269.564889 171.179847 C 269.861103 174.102494 269.999336 177.044889 269.999336 180.007031 Z M 269.999336 180.007031 " stroke="#e2e8f0" stroke-width="12" stroke-opacity="1" stroke-miterlimit="4"/><path stroke-linecap="butt" transform="matrix(0.197809, 0, 0, 0.197809, 3.951157, 28.342262)" fill="none" stroke-linejoin="miter" d="M 257.992787 180.007031 C 257.992787 185.121664 257.499096 190.196801 256.491968 195.212695 C 255.504587 200.248336 254.023516 205.125997 252.068502 209.845677 C 250.093741 214.585105 247.704279 219.067813 244.860623 223.333298 C 242.016966 227.598783 238.778357 231.528558 235.144796 235.162119 C 231.530983 238.775933 227.601207 242.014542 223.335723 244.858198 C 219.070238 247.701855 214.587529 250.111064 209.848102 252.066078 C 205.108674 254.021092 200.231013 255.502163 195.215119 256.509291 C 190.199225 257.496672 185.124088 257.990362 180.009456 257.990362 C 174.875076 257.990362 169.799939 257.496672 164.784045 256.509291 C 159.768151 255.502163 154.89049 254.021092 150.151062 252.066078 C 145.411635 250.111064 140.928926 247.701855 136.663441 244.858198 C 132.397957 242.014542 128.468181 238.775933 124.854368 235.162119 C 121.220807 231.528558 117.982198 227.598783 115.138541 223.333298 C 112.294885 219.067813 109.905423 214.585105 107.930662 209.845677 C 105.975648 205.125997 104.494577 200.248336 103.507196 195.212695 C 102.500068 190.196801 102.006377 185.121664 102.006377 180.007031 C 102.006377 174.872651 102.500068 169.797514 103.507196 164.78162 C 104.494577 159.765726 105.975648 154.888065 107.930662 150.148638 C 109.905423 145.40921 112.294885 140.926502 115.138541 136.661017 C 117.982198 132.41528 121.220807 128.465757 124.854368 124.851943 C 128.468181 121.218382 132.397957 117.999521 136.663441 115.136117 C 140.928926 112.29246 145.411635 109.902999 150.151062 107.928237 C 154.89049 105.973223 159.768151 104.492152 164.784045 103.504772 C 169.799939 102.497643 174.875076 102.003953 180.009456 102.003953 C 185.124088 102.003953 190.199225 102.497643 195.215119 103.504772 C 200.231013 104.492152 205.108674 105.973223 209.848102 107.928237 C 214.587529 109.902999 219.070238 112.29246 223.335723 115.136117 C 227.601207 117.999521 231.530983 121.218382 235.144796 124.851943 C 238.778357 128.465757 242.016966 132.41528 244.860623 136.661017 C 247.704279 140.926502 250.093741 145.40921 252.068502 150.148638 C 254.023516 154.888065 255.504587 159.765726 256.491968 164.78162 C 257.499096 169.797514 257.992787 174.872651 257.992787 180.007031 Z M 257.992787 180.007031 " stroke="#f3f4f6" stroke-width="10" stroke-opacity="1" stroke-miterlimit="4"/><path fill="#ec4899" d="M 74.332031 73.265625 C 72.839844 78.832031 70.167969 83.753906 66.3125 88.039062 L 62.929688 84.992188 C 66.296875 81.253906 68.632812 76.949219 69.9375 72.089844 Z M 74.332031 73.265625 " fill-opacity="0.9" fill-rule="nonzero"/><path fill="#06b6d4" d="M 47.042969 99.164062 C 43.535156 99.90625 39.992188 100.125 36.417969 99.8125 L 36.816406 95.28125 C 39.9375 95.554688 43.03125 95.363281 46.097656 94.710938 Z M 47.042969 99.164062 " fill-opacity="0.88" fill-rule="nonzero"/><path fill="#8b5cf6" d="M 14.101562 89.40625 C 11.867188 87.171875 9.957031 84.683594 8.378906 81.949219 C 6.800781 79.210938 5.601562 76.316406 4.78125 73.265625 L 9.175781 72.089844 C 9.890625 74.753906 10.9375 77.28125 12.320312 79.671875 C 13.699219 82.0625 15.363281 84.234375 17.316406 86.1875 Z M 14.101562 89.40625 " fill-opacity="0.85" fill-rule="nonzero"/><path fill="#3b82f6" d="M 4.78125 54.628906 C 6.046875 49.914062 8.179688 45.632812 11.1875 41.785156 L 14.773438 44.585938 C 12.144531 47.945312 10.28125 51.6875 9.175781 55.808594 Z M 4.78125 54.628906 " fill-opacity="0.9" fill-rule="nonzero"/><path fill="#f97316" d="M 30.238281 29.171875 C 34.328125 28.078125 38.480469 27.714844 42.695312 28.082031 L 42.296875 32.617188 C 38.613281 32.292969 34.988281 32.609375 31.417969 33.566406 Z M 30.238281 29.171875 " fill-opacity="0.88" fill-rule="nonzero"/><path fill="#10b981" d="M 62.699219 36.371094 C 65.117188 38.398438 67.234375 40.710938 69.046875 43.296875 C 70.859375 45.886719 72.304688 48.664062 73.386719 51.632812 L 69.113281 53.191406 C 68.167969 50.597656 66.902344 48.167969 65.320312 45.90625 C 63.738281 43.648438 61.886719 41.628906 59.773438 39.855469 Z M 62.699219 36.371094 " fill-opacity="0.85" fill-rule="nonzero"/><path fill="#3b82f6" d="M 69.902344 66.601562 C 69.671875 69.265625 69.097656 71.855469 68.183594 74.367188 C 67.269531 76.878906 66.042969 79.230469 64.511719 81.421875 L 60.945312 78.925781 C 62.261719 77.046875 63.308594 75.03125 64.09375 72.878906 C 64.875 70.726562 65.367188 68.507812 65.566406 66.222656 Z M 69.902344 66.601562 " fill-opacity="0.9" fill-rule="nonzero"/><path fill="#f97316" d="M 40.621094 94.390625 C 36.304688 94.542969 32.148438 93.808594 28.144531 92.191406 L 29.777344 88.15625 C 33.207031 89.542969 36.769531 90.171875 40.46875 90.042969 Z M 40.621094 94.390625 " fill-opacity="0.88" fill-rule="nonzero"/><path fill="#10b981" d="M 13.722656 80.089844 C 11.433594 76.429688 9.992188 72.460938 9.390625 68.1875 L 13.699219 67.582031 C 14.214844 71.246094 15.453125 74.648438 17.414062 77.785156 Z M 13.722656 80.089844 " fill-opacity="0.85" fill-rule="nonzero"/><path fill="#8b5cf6" d="M 12.660156 49.648438 C 14.949219 45.339844 18.089844 41.789062 22.085938 38.996094 L 24.582031 42.558594 C 21.15625 44.957031 18.464844 48 16.503906 51.691406 Z M 12.660156 49.648438 " fill-opacity="0.9" fill-rule="nonzero"/><path fill="#ec4899" d="M 38.492188 33.503906 C 41.527344 33.398438 44.507812 33.738281 47.441406 34.523438 L 46.316406 38.726562 C 43.800781 38.054688 41.246094 37.761719 38.644531 37.851562 Z M 38.492188 33.503906 " fill-opacity="0.88" fill-rule="nonzero"/><path fill="#06b6d4" d="M 62.195312 43.5625 C 63.863281 45.417969 65.28125 47.445312 66.453125 49.648438 L 62.609375 51.691406 C 61.609375 49.800781 60.390625 48.066406 58.960938 46.476562 Z M 62.195312 43.5625 " fill-opacity="0.85" fill-rule="nonzero"/><path fill="#8b5cf6" d="M 62.847656 73.359375 C 61.402344 76.945312 59.238281 80.03125 56.367188 82.617188 L 53.320312 79.234375 C 55.675781 77.117188 57.445312 74.589844 58.628906 71.652344 Z M 62.847656 73.359375 " fill-opacity="0.9" fill-rule="nonzero"/><path fill="#ec4899" d="M 46.058594 88.214844 C 43.640625 88.863281 41.179688 89.140625 38.679688 89.054688 L 38.839844 84.507812 C 40.886719 84.578125 42.902344 84.347656 44.882812 83.820312 Z M 46.058594 88.214844 " fill-opacity="0.88" fill-rule="nonzero"/><path fill="#06b6d4" d="M 25.148438 84.527344 C 22.726562 82.832031 20.671875 80.777344 18.976562 78.355469 L 22.703125 75.746094 C 24.09375 77.726562 25.777344 79.414062 27.757812 80.800781 Z M 25.148438 84.527344 " fill-opacity="0.85" fill-rule="nonzero"/><path fill="#3b82f6" d="M 14.53125 61.757812 C 14.789062 58.816406 15.539062 56.007812 16.789062 53.332031 L 20.910156 55.253906 C 19.890625 57.445312 19.273438 59.746094 19.0625 62.15625 Z M 14.53125 61.757812 " fill-opacity="0.9" fill-rule="nonzero"/><path fill="#f97316" d="M 25.148438 43.371094 C 27.9375 41.414062 31 40.082031 34.332031 39.375 L 35.28125 43.824219 C 32.550781 44.40625 30.042969 45.496094 27.757812 47.097656 Z M 25.148438 43.371094 " fill-opacity="0.88" fill-rule="nonzero"/><path fill="#10b981" d="M 50.171875 41.179688 C 52.441406 42.238281 54.507812 43.605469 56.367188 45.277344 L 53.320312 48.660156 C 51.800781 47.289062 50.109375 46.167969 48.25 45.304688 Z M 50.171875 41.179688 " fill-opacity="0.85" fill-rule="nonzero"/><g fill="#9972f7" fill-opacity="1"><g transform="translate(91.505003, 92.793416)"><g><path d="M 29.578125 0 L 18.90625 0 L 18.90625 -21.1875 L 0.265625 -53.96875 L 11.703125 -53.96875 L 24.03125 -32.75 L 24.953125 -32.75 L 37.03125 -53.96875 L 48.21875 -53.96875 L 29.578125 -21.1875 Z M 29.578125 0 "/></g></g></g><g fill="#9972f7" fill-opacity="1"><g transform="translate(139.971612, 92.793416)"><g><path d="M 17.6875 -23.703125 L 17.6875 -8.9375 L 43.453125 -8.9375 L 43.453125 0 L 7.015625 0 L 7.015625 -53.96875 L 42.859375 -53.96875 L 42.859375 -45.046875 L 17.6875 -45.046875 L 17.6875 -32.421875 L 39.6875 -32.421875 L 39.6875 -23.703125 Z M 17.6875 -23.703125 "/></g></g></g><g fill="#9972f7" fill-opacity="1"><g transform="translate(186.3711, 92.793416)"><g><path d="M 51.796875 0 L 40.578125 0 L 36.515625 -12.4375 L 15.84375 -12.4375 L 11.78125 0 L 0.8125 0 L 19.453125 -53.96875 L 33.15625 -53.96875 Z M 25.65625 -42.71875 L 18.71875 -21.40625 L 33.5625 -21.40625 L 26.578125 -42.71875 Z M 25.65625 -42.71875 "/></g></g></g><g fill="#9972f7" fill-opacity="1"><g transform="translate(238.97195, 92.793416)"><g><path d="M 7.015625 0 L 7.015625 -53.96875 L 28.6875 -53.96875 C 34.269531 -53.96875 38.484375 -52.679688 41.328125 -50.109375 C 44.171875 -47.546875 45.59375 -44 45.59375 -39.46875 C 45.59375 -36.195312 44.757812 -33.515625 43.09375 -31.421875 C 41.4375 -29.328125 38.957031 -27.726562 35.65625 -26.625 L 35.65625 -25.84375 C 37.351562 -25.101562 38.722656 -24.003906 39.765625 -22.546875 C 40.816406 -21.097656 41.8125 -18.945312 42.75 -16.09375 L 48.140625 0 L 37.171875 0 L 31.890625 -16.140625 C 31.347656 -17.753906 30.738281 -19.007812 30.0625 -19.90625 C 29.394531 -20.8125 28.535156 -21.46875 27.484375 -21.875 C 26.441406 -22.28125 25.082031 -22.484375 23.40625 -22.484375 L 17.6875 -22.484375 L 17.6875 0 Z M 27.390625 -30.9375 C 32.554688 -30.9375 35.140625 -33.347656 35.140625 -38.171875 C 35.140625 -43.066406 32.554688 -45.515625 27.390625 -45.515625 L 17.6875 -45.515625 L 17.6875 -30.9375 Z M 27.390625 -30.9375 "/></g></g></g><g fill="#42bed8" fill-opacity="1"><g transform="translate(289.144783, 92.793416)"><g><path d="M 25.765625 0 L 13.84375 0 L 1.484375 -53.96875 L 12.109375 -53.96875 L 20.265625 -16.015625 L 21.1875 -16.015625 L 30.859375 -53.96875 L 39.984375 -53.96875 L 49.84375 -16.015625 L 50.765625 -16.015625 L 58.953125 -53.96875 L 69.21875 -53.96875 L 56.890625 0 L 44.9375 0 L 35.484375 -34.8125 L 34.703125 -34.8125 Z M 25.765625 0 "/></g></g></g><g fill="#42bed8" fill-opacity="1"><g transform="translate(359.796023, 92.793416)"><g><path d="M 41.859375 -33.671875 L 41.859375 -53.96875 L 52.5 -53.96875 L 52.5 0 L 41.859375 0 L 41.859375 -24.59375 L 17.6875 -24.59375 L 17.6875 0 L 7.015625 0 L 7.015625 -53.96875 L 17.6875 -53.96875 L 17.6875 -33.671875 Z M 41.859375 -33.671875 "/></g></g></g><g fill="#42bed8" fill-opacity="1"><g transform="translate(419.336494, 92.793416)"><g><path d="M 17.6875 -23.703125 L 17.6875 -8.9375 L 43.453125 -8.9375 L 43.453125 0 L 7.015625 0 L 7.015625 -53.96875 L 42.859375 -53.96875 L 42.859375 -45.046875 L 17.6875 -45.046875 L 17.6875 -32.421875 L 39.6875 -32.421875 L 39.6875 -23.703125 Z M 17.6875 -23.703125 "/></g></g></g><g fill="#42bed8" fill-opacity="1"><g transform="translate(465.735981, 92.793416)"><g><path d="M 17.6875 -23.703125 L 17.6875 -8.9375 L 43.453125 -8.9375 L 43.453125 0 L 7.015625 0 L 7.015625 -53.96875 L 42.859375 -53.96875 L 42.859375 -45.046875 L 17.6875 -45.046875 L 17.6875 -32.421875 L 39.6875 -32.421875 L 39.6875 -23.703125 Z M 17.6875 -23.703125 "/></g></g></g><g fill="#42bed8" fill-opacity="1"><g transform="translate(512.135469, 92.793416)"><g><path d="M 17.6875 -53.96875 L 17.6875 -8.9375 L 41.9375 -8.9375 L 41.9375 0 L 7.015625 0 L 7.015625 -53.96875 Z M 17.6875 -53.96875 "/></g></g></g></svg>